<?xml version="1.0" ?>
<!-- Uploaded to: SVG Repo, www.svgrepo.com, Generator: SVG Repo Mixer Tools -->
<svg width="800px" height="800px" viewBox="0 0 20 20" version="1.1" xmlns="http://www.w3.org/2000/svg">
<g id="layer1">
<path d="M 12.5 0 C 12.367418 0.00011174 12.240289 0.052789295 12.146484 0.14648438 L 7.1464844 5.1464844 C 7.0527894 5.2402891 7.0001119 5.3674177 7 5.5 L 7 6.4277344 C 6.97868 6.5848472 7.033013 6.7427762 7.1464844 6.8535156 L 8.7929688 8.5 L 0.14648438 17.146484 C 0.001290365 17.275926 -0.05582365 17.477729 0 17.664062 L 0 19.5 C 2.7608953e-005 19.776131 0.22386906 19.999972 0.5 20 L 3.5 20 C 3.6325994 19.999975 3.7597597 19.94728 3.8535156 19.853516 L 4.7070312 19 L 6.5 19 C 6.7761309 18.999972 6.9999724 18.776131 7 18.5 L 7 17 L 8.5 17 C 8.7761309 16.999972 8.9999724 16.776131 9 16.5 L 9 14.707031 L 12 11.707031 L 13.146484 12.853516 C 13.275926 12.99871 13.47773 13.055824 13.664062 13 L 14.5 13 C 14.632582 12.999888 14.759711 12.94721 14.853516 12.853516 L 19.853516 7.8535156 C 19.947211 7.7597108 19.999888 7.6325822 20 7.5 L 20 6.5 C 19.999888 6.3674178 19.947211 6.2402892 19.853516 6.1464844 L 13.853516 0.14648438 C 13.759711 0.052789315 13.632582 0.00011174 13.5 0 L 12.5 0 z M 12.707031 1 L 13.292969 1 L 19 6.7070312 L 19 7.2929688 L 14.292969 12 L 13.707031 12 L 12.353516 10.646484 C 12.257804 10.550855 12.127472 10.498018 11.992188 10.5 C 11.862317 10.5022 11.738364 10.55468 11.646484 10.646484 L 8.1464844 14.146484 C 8.0012904 14.275926 7.9441764 14.47773 8 14.664062 L 8 16 L 6.5 16 C 6.2238691 16.000028 6.0000276 16.223869 6 16.5 L 6 18 L 4.5 18 C 4.3674006 18.000025 4.2402403 18.05272 4.1464844 18.146484 L 3.2929688 19 L 1 19 L 1 17.707031 L 9.8535156 8.8535156 C 10.048266 8.6580714 10.048266 8.3419286 9.8535156 8.1464844 L 8 6.2929688 L 8 5.7070312 L 12.707031 1 z M 14.5 3.5 C 13.401353 3.5 12.5 4.4013528 12.5 5.5 C 12.5 6.5986472 13.401353 7.5 14.5 7.5 C 15.598647 7.5 16.5 6.5986472 16.5 5.5 C 16.5 4.4013528 15.598647 3.5 14.5 3.5 z M 14.5 4.5 C 15.058207 4.5 15.5 4.9417929 15.5 5.5 C 15.5 6.0582071 15.058207 6.5 14.5 6.5 C 13.941793 6.5 13.5 6.0582071 13.5 5.5 C 13.5 4.9417929 13.941793 4.5 14.5 4.5 z " style="fill:#222222; fill-opacity:1; stroke:none; stroke-width:0px;"/>
</g>
</svg>